# xmcd
#
# Track frame offsets:
#	150
#	13217
#	23216
#	35801
#	48532
#	60412
#	72991
#	85312
#	98038
#	111860
#	125176
#	138073
#	150706
#	162352
#	174560
#	187772
#	201826
#	214987
#	224814
#	239236
#	252043
#	265530
#	277792
#	291148
#	304776
#	316816
#	329464
#
# Disc length: 4564 seconds
#
# Revision: 0
# Processed by: cddbd v1.5.2PL0 Copyright (c) Steve Scherf et al.
# Submitted via: dBpowerAMP V4.0
#
DISCID=9511d21b
DTITLE=Various Artist - The Trilon records story CD3
DYEAR=1900
DGENRE=Blues
TTITLE0=Lowell Fulson - Mean woman blues
TTITLE1=The Vagabonds - Ragged but right
TTITLE2=Jack Ross and His orchestra - But the blame on mame
TTITLE3=Vido Musso and His orchestra - The unfinished boogie
TTITLE4=Wright brothers Gospes singers - Gospel Train
TTITLE5=Wright brothers Gospes singers - Jordans stormy banks
TTITLE6=Paramount Singers - Lord, Hold my hand
TTITLE7=Paramount Singers - Nobody knows the trouble I see
TTITLE8=Rising star gospel singers - One day
TTITLE9=Rising star gospel singers - Something within me
TTITLE10=Johnny Ingram and his rythm Czars - Steamlined baby
TTITLE11=Johnny Ingram and his rythm Czars - Ridin hi
TTITLE12=Johnny Ingram and his rythm Czars - Jubudy
TTITLE13=Johnny Ingram and his rythm Czars - Red light gotta go
TTITLE14=Lowell Fulson - Lets throw a boogie woogie
TTITLE15=Lowell Fulson - Whiskey blues
TTITLE16=Phil Ford four -Frustrated francis
TTITLE17=Phil Ford four -Dames are all in the same
TTITLE18=Vido Musso and His orchestra - Vido in a mist
TTITLE19=Vido Musso and His orchestra - Gone with the vido
TTITLE20=Vido Musso and His orchestra -  The day I left Alsace-Lorraine
TTITLE21=Vido Musso and His orchestra - Chekerboard
TTITLE22=Four Aces - Cherie
TTITLE23=Four Aces - Ill never let you go again
TTITLE24=Four Aces - Im cryin all the time
TTITLE25=Four Aces - Ait it a cryin shame
TTITLE26=Four Aces - I wonder i wonder I wonder (pt1)
EXTD=
EXTT0=
EXTT1=
EXTT2=
EXTT3=
EXTT4=
EXTT5=
EXTT6=
EXTT7=
EXTT8=
EXTT9=
EXTT10=
EXTT11=
EXTT12=
EXTT13=
EXTT14=
EXTT15=
EXTT16=
EXTT17=
EXTT18=
EXTT19=
EXTT20=
EXTT21=
EXTT22=
EXTT23=
EXTT24=
EXTT25=
EXTT26=
PLAYORDER=
